<?xml version="1.0" standalone="no"?><!DOCTYPE svg PUBLIC "-//W3C//DTD SVG 1.1//EN" "http://www.w3.org/Graphics/SVG/1.1/DTD/svg11.dtd"><svg t="1536050071375" class="icon" style="" viewBox="0 0 1024 1024" version="1.1" xmlns="http://www.w3.org/2000/svg" p-id="27984" xmlns:xlink="http://www.w3.org/1999/xlink" width="32" height="32"><defs><style type="text/css"></style></defs><path d="M512.267234 959.569968c247.223255 0 447.572016-200.400979 447.572016-447.582255 0-247.171037-200.347737-447.558705-447.572016-447.558705-247.194586 0-447.568944 200.387669-447.568944 447.558705 0 247.1823 200.373334 447.582255 447.568944 447.582255" fill="#1284C7" p-id="27985"></path><path d="M387.013295 699.188763h-87.249365V419.999808h87.249365v279.188955z m-45.860848-314.114707h-0.628666c-31.57048 0-52.042043-21.341866-52.042043-48.378582 0-27.573232 21.086918-48.478922 53.286064-48.478922 32.175596 0 51.975491 20.852449 52.607228 48.402131 0.001024 27.046955-20.430608 48.455373-53.222583 48.455373z m394.899259 314.114707H637.125954V554.711376c0-37.815157-15.457597-63.618091-49.496664-63.61809-26.03126 0-40.488521 17.410146-47.233878 34.204937-2.518758 6.013279-2.133777 14.405043-2.133777 22.820356v151.06916h-98.001184s1.273713-255.921161 0-279.188955h98.001184v43.815125c5.794167-19.157918 37.097413-46.5018 87.093733-46.5018 61.986018 0 110.696338 40.168045 110.696338 126.630041v155.246613z" fill="#FFFFFF" p-id="27986"></path></svg>