<?xml version="1.0" standalone="no"?><!DOCTYPE svg PUBLIC "-//W3C//DTD SVG 1.1//EN" "http://www.w3.org/Graphics/SVG/1.1/DTD/svg11.dtd"><svg t="1536051263591" class="icon" style="" viewBox="0 0 1024 1024" version="1.1" xmlns="http://www.w3.org/2000/svg" p-id="71078" xmlns:xlink="http://www.w3.org/1999/xlink" width="32" height="32"><defs><style type="text/css"></style></defs><path d="M128 512c0 148.02944 88.33024 275.968 216.43264 336.56832l-183.17312-488.77568c-21.2992 46.51008-33.25952 97.97632-33.25952 152.20736zM771.23584 493.13792c0-46.24384-17.05984-78.2336-31.66208-103.13728-19.456-30.8224-37.72416-56.89344-37.72416-87.71584 0-34.36544 26.76736-66.37568 64.49152-66.37568 1.69984 0 3.31776 0.2048 4.97664 0.3072-68.32128-60.96896-159.3344-98.2016-259.31776-98.2016-134.16448 0-252.19072 67.05152-320.83968 168.57088 9.0112 0.28672 17.5104 0.45056 24.71936 0.45056 40.16128 0 102.33856-4.75136 102.33856-4.75136 20.6848-1.18784 23.12192 28.42624 2.4576 30.8224 0 0-20.80768 2.37568-43.95008 3.54304l139.83744 405.11488 84.04992-245.4528-59.82208-159.6416c-20.6848-1.18784-40.28416-3.54304-40.28416-3.54304-20.70528-1.18784-18.26816-32.01024 2.43712-30.8224 0 0 63.40608 4.75136 101.13024 4.75136 40.1408 0 102.35904-4.75136 102.35904-4.75136 20.70528-1.18784 23.1424 28.42624 2.43712 30.8224 0 0-20.82816 2.37568-43.95008 3.54304l138.77248 402.0224 38.31808-124.64128c16.5888-51.75296 29.22496-88.90368 29.22496-120.89344zM518.73792 544.70656l-115.22048 326.06208c34.4064 9.85088 70.79936 15.23712 108.48256 15.23712 44.70784 0 87.61344-7.51616 127.50848-21.1968-1.024-1.59744-1.96608-3.29728-2.74432-5.16096l-118.02624-314.94144zM848.95744 332.57472c1.65888 11.91936 2.58048 24.6784 2.58048 38.46144 0 37.92896-7.29088 80.5888-29.20448 133.95968l-117.28896 330.28096c114.15552-64.8192 190.93504-185.28256 190.93504-323.25632 0-65.024-17.05984-126.1568-47.04256-179.42528zM512 0c-282.76736 0-512 229.23264-512 512s229.23264 512 512 512 512-229.23264 512-512-229.23264-512-512-512zM512 960c-247.41888 0-448-200.58112-448-448s200.58112-448 448-448 448 200.58112 448 448-200.58112 448-448 448z" p-id="71079"></path></svg>